<mxfile host="app.diagrams.net" modified="2022-11-13T16:27:11.209Z" agent="5.0 (Windows NT 10.0; Win64; x64) AppleWebKit/537.36 (KHTML, like Gecko) Chrome/107.0.0.0 Safari/537.36" etag="smMk2u-sxpcprIhW2xNf" version="18.1.3" type="github" pages="2">
  <diagram id="C5RBs43oDa-KdzZeNtuy" name="Page-1">
    <mxGraphModel dx="1718" dy="935" grid="1" gridSize="10" guides="1" tooltips="1" connect="1" arrows="1" fold="1" page="1" pageScale="1" pageWidth="827" pageHeight="1169" math="0" shadow="0">
      <root>
        <mxCell id="WIyWlLk6GJQsqaUBKTNV-0" />
        <mxCell id="WIyWlLk6GJQsqaUBKTNV-1" parent="WIyWlLk6GJQsqaUBKTNV-0" />
        <mxCell id="BHgu736OFygUR0V6wJeC-17" style="edgeStyle=orthogonalEdgeStyle;rounded=0;orthogonalLoop=1;jettySize=auto;html=1;exitX=0.5;exitY=1;exitDx=0;exitDy=0;entryX=0.5;entryY=0;entryDx=0;entryDy=0;fontFamily=Helvetica;fontSize=12;fontColor=default;" edge="1" parent="WIyWlLk6GJQsqaUBKTNV-1" source="WIyWlLk6GJQsqaUBKTNV-3">
          <mxGeometry relative="1" as="geometry">
            <mxPoint x="260" y="200" as="targetPoint" />
          </mxGeometry>
        </mxCell>
        <mxCell id="WIyWlLk6GJQsqaUBKTNV-3" value="データセット取得" style="rounded=0;whiteSpace=wrap;html=1;fontSize=12;glass=0;strokeWidth=1;shadow=0;" parent="WIyWlLk6GJQsqaUBKTNV-1" vertex="1">
          <mxGeometry x="160" y="120" width="200" height="40" as="geometry" />
        </mxCell>
        <mxCell id="BHgu736OFygUR0V6wJeC-12" value="cilabo.developing.*.main" style="swimlane;horizontal=0;rounded=0;fontFamily=Helvetica;fontSize=12;strokeColor=#666666;fillColor=#f5f5f5;html=1;startSize=40;fontColor=#333333;" vertex="1" parent="WIyWlLk6GJQsqaUBKTNV-1">
          <mxGeometry x="60" y="100" width="440" height="160" as="geometry" />
        </mxCell>
        <mxCell id="BHgu736OFygUR0V6wJeC-13" value="cilabo.gbml.algorithm" style="swimlane;horizontal=0;rounded=0;fontFamily=Helvetica;fontSize=12;strokeColor=#666666;fillColor=#f5f5f5;html=1;startSize=40;fontColor=#333333;" vertex="1" parent="WIyWlLk6GJQsqaUBKTNV-1">
          <mxGeometry x="60" y="300" width="440" height="640" as="geometry" />
        </mxCell>
        <mxCell id="BHgu736OFygUR0V6wJeC-31" value="No" style="edgeStyle=orthogonalEdgeStyle;rounded=0;orthogonalLoop=1;jettySize=auto;html=1;exitX=0.5;exitY=1;exitDx=0;exitDy=0;entryX=0.5;entryY=0;entryDx=0;entryDy=0;fontFamily=Helvetica;fontSize=12;fontColor=default;" edge="1" parent="BHgu736OFygUR0V6wJeC-13" source="BHgu736OFygUR0V6wJeC-23" target="BHgu736OFygUR0V6wJeC-27">
          <mxGeometry relative="1" as="geometry" />
        </mxCell>
        <mxCell id="BHgu736OFygUR0V6wJeC-23" value="世代数が終了条件を満たすか" style="rhombus;whiteSpace=wrap;html=1;rounded=0;fontFamily=Helvetica;fontSize=12;fontColor=default;strokeColor=default;fillColor=default;" vertex="1" parent="BHgu736OFygUR0V6wJeC-13">
          <mxGeometry x="100" y="180" width="200" height="80" as="geometry" />
        </mxCell>
        <mxCell id="BHgu736OFygUR0V6wJeC-32" style="edgeStyle=orthogonalEdgeStyle;rounded=0;orthogonalLoop=1;jettySize=auto;html=1;exitX=0.5;exitY=1;exitDx=0;exitDy=0;entryX=0.5;entryY=0;entryDx=0;entryDy=0;fontFamily=Helvetica;fontSize=12;fontColor=default;" edge="1" parent="BHgu736OFygUR0V6wJeC-13" source="BHgu736OFygUR0V6wJeC-27" target="BHgu736OFygUR0V6wJeC-28">
          <mxGeometry relative="1" as="geometry" />
        </mxCell>
        <mxCell id="BHgu736OFygUR0V6wJeC-27" value="親個体 選択&lt;span style=&quot;color: rgba(0, 0, 0, 0); font-family: monospace; font-size: 0px; text-align: start;&quot;&gt;%3CmxGraphModel%3E%3Croot%3E%3CmxCell%20id%3D%220%22%2F%3E%3CmxCell%20id%3D%221%22%20parent%3D%220%22%2F%3E%3CmxCell%20id%3D%222%22%20value%3D%22%E5%88%9D%E6%9C%9F%E5%80%8B%E4%BD%93%E7%BE%A4%20%E8%A9%95%E4%BE%A1%22%20style%3D%22rounded%3D1%3BwhiteSpace%3Dwrap%3Bhtml%3D1%3B%22%20vertex%3D%221%22%20parent%3D%221%22%3E%3CmxGeometry%20x%3D%22160%22%20y%3D%22400%22%20width%3D%22200%22%20height%3D%2240%22%20as%3D%22geometry%22%2F%3E%3C%2FmxCell%3E%3C%2Froot%3E%3C%2FmxGraphModel%3E&lt;/span&gt;" style="shape=process;whiteSpace=wrap;html=1;backgroundOutline=1;fontFamily=Helvetica;fontSize=12;fontColor=default;align=center;strokeColor=default;fillColor=default;" vertex="1" parent="BHgu736OFygUR0V6wJeC-13">
          <mxGeometry x="100" y="300" width="200" height="40" as="geometry" />
        </mxCell>
        <mxCell id="BHgu736OFygUR0V6wJeC-28" value="子個体 生成" style="shape=process;whiteSpace=wrap;html=1;backgroundOutline=1;fontFamily=Helvetica;fontSize=12;fontColor=default;align=center;strokeColor=default;fillColor=default;" vertex="1" parent="BHgu736OFygUR0V6wJeC-13">
          <mxGeometry x="100" y="380" width="200" height="40" as="geometry" />
        </mxCell>
        <mxCell id="BHgu736OFygUR0V6wJeC-61" value="page-2" style="verticalLabelPosition=bottom;verticalAlign=top;html=1;shape=offPageConnector;rounded=0;size=0.5;fontFamily=Helvetica;fontSize=12;fontColor=default;strokeColor=default;fillColor=default;" vertex="1" parent="BHgu736OFygUR0V6wJeC-13">
          <mxGeometry x="320" y="20" width="40" height="40" as="geometry" />
        </mxCell>
        <mxCell id="__gQqcDuJKMaHwjbn-1Q-1" value="page-3" style="verticalLabelPosition=bottom;verticalAlign=top;html=1;shape=offPageConnector;rounded=0;size=0.5;fontFamily=Helvetica;fontSize=12;fontColor=default;strokeColor=default;fillColor=default;" vertex="1" parent="BHgu736OFygUR0V6wJeC-13">
          <mxGeometry x="320" y="100" width="40" height="40" as="geometry" />
        </mxCell>
        <mxCell id="__gQqcDuJKMaHwjbn-1Q-2" value="page-4" style="verticalLabelPosition=bottom;verticalAlign=top;html=1;shape=offPageConnector;rounded=0;size=0.5;fontFamily=Helvetica;fontSize=12;fontColor=default;strokeColor=default;fillColor=default;" vertex="1" parent="BHgu736OFygUR0V6wJeC-13">
          <mxGeometry x="320" y="300" width="40" height="40" as="geometry" />
        </mxCell>
        <mxCell id="__gQqcDuJKMaHwjbn-1Q-3" value="page-5" style="verticalLabelPosition=bottom;verticalAlign=top;html=1;shape=offPageConnector;rounded=0;size=0.5;fontFamily=Helvetica;fontSize=12;fontColor=default;strokeColor=default;fillColor=default;" vertex="1" parent="BHgu736OFygUR0V6wJeC-13">
          <mxGeometry x="320" y="380" width="40" height="40" as="geometry" />
        </mxCell>
        <mxCell id="__gQqcDuJKMaHwjbn-1Q-4" value="page-6" style="verticalLabelPosition=bottom;verticalAlign=top;html=1;shape=offPageConnector;rounded=0;size=0.5;fontFamily=Helvetica;fontSize=12;fontColor=default;strokeColor=default;fillColor=default;" vertex="1" parent="BHgu736OFygUR0V6wJeC-13">
          <mxGeometry x="320" y="460" width="40" height="40" as="geometry" />
        </mxCell>
        <mxCell id="__gQqcDuJKMaHwjbn-1Q-5" value="page-7" style="verticalLabelPosition=bottom;verticalAlign=top;html=1;shape=offPageConnector;rounded=0;size=0.5;fontFamily=Helvetica;fontSize=12;fontColor=default;strokeColor=default;fillColor=default;" vertex="1" parent="BHgu736OFygUR0V6wJeC-13">
          <mxGeometry x="320" y="540" width="40" height="40" as="geometry" />
        </mxCell>
        <mxCell id="BHgu736OFygUR0V6wJeC-19" style="edgeStyle=orthogonalEdgeStyle;rounded=0;orthogonalLoop=1;jettySize=auto;html=1;exitX=0.5;exitY=1;exitDx=0;exitDy=0;entryX=0.5;entryY=0;entryDx=0;entryDy=0;fontFamily=Helvetica;fontSize=12;fontColor=default;" edge="1" parent="WIyWlLk6GJQsqaUBKTNV-1" source="BHgu736OFygUR0V6wJeC-0" target="BHgu736OFygUR0V6wJeC-20">
          <mxGeometry relative="1" as="geometry">
            <mxPoint x="260" y="280" as="targetPoint" />
          </mxGeometry>
        </mxCell>
        <mxCell id="BHgu736OFygUR0V6wJeC-0" value="最適化問題 条件初期化" style="rounded=0;whiteSpace=wrap;html=1;" vertex="1" parent="WIyWlLk6GJQsqaUBKTNV-1">
          <mxGeometry x="160" y="200" width="200" height="40" as="geometry" />
        </mxCell>
        <mxCell id="BHgu736OFygUR0V6wJeC-25" style="edgeStyle=orthogonalEdgeStyle;rounded=0;orthogonalLoop=1;jettySize=auto;html=1;exitX=0.5;exitY=1;exitDx=0;exitDy=0;entryX=0.5;entryY=0;entryDx=0;entryDy=0;fontFamily=Helvetica;fontSize=12;fontColor=default;" edge="1" parent="WIyWlLk6GJQsqaUBKTNV-1" source="BHgu736OFygUR0V6wJeC-20" target="BHgu736OFygUR0V6wJeC-21">
          <mxGeometry relative="1" as="geometry" />
        </mxCell>
        <mxCell id="BHgu736OFygUR0V6wJeC-20" value="初期個体群 生成" style="shape=process;whiteSpace=wrap;html=1;backgroundOutline=1;fontFamily=Helvetica;fontSize=12;fontColor=default;align=center;strokeColor=default;fillColor=default;" vertex="1" parent="WIyWlLk6GJQsqaUBKTNV-1">
          <mxGeometry x="160" y="320" width="200" height="40" as="geometry" />
        </mxCell>
        <mxCell id="BHgu736OFygUR0V6wJeC-26" style="edgeStyle=orthogonalEdgeStyle;rounded=0;orthogonalLoop=1;jettySize=auto;html=1;exitX=0.5;exitY=1;exitDx=0;exitDy=0;entryX=0.5;entryY=0;entryDx=0;entryDy=0;fontFamily=Helvetica;fontSize=12;fontColor=default;" edge="1" parent="WIyWlLk6GJQsqaUBKTNV-1" source="BHgu736OFygUR0V6wJeC-21" target="BHgu736OFygUR0V6wJeC-23">
          <mxGeometry relative="1" as="geometry" />
        </mxCell>
        <mxCell id="BHgu736OFygUR0V6wJeC-21" value="初期個体群 評価" style="shape=process;whiteSpace=wrap;html=1;backgroundOutline=1;fontFamily=Helvetica;fontSize=12;fontColor=default;align=center;strokeColor=default;fillColor=default;" vertex="1" parent="WIyWlLk6GJQsqaUBKTNV-1">
          <mxGeometry x="160" y="400" width="200" height="40" as="geometry" />
        </mxCell>
        <mxCell id="BHgu736OFygUR0V6wJeC-36" style="edgeStyle=orthogonalEdgeStyle;rounded=0;orthogonalLoop=1;jettySize=auto;html=1;exitX=0.5;exitY=1;exitDx=0;exitDy=0;entryX=0.5;entryY=0;entryDx=0;entryDy=0;fontFamily=Helvetica;fontSize=12;fontColor=default;" edge="1" parent="WIyWlLk6GJQsqaUBKTNV-1" source="BHgu736OFygUR0V6wJeC-29" target="BHgu736OFygUR0V6wJeC-30">
          <mxGeometry relative="1" as="geometry" />
        </mxCell>
        <mxCell id="BHgu736OFygUR0V6wJeC-29" value="子個体群 評価" style="shape=process;whiteSpace=wrap;html=1;backgroundOutline=1;fontFamily=Helvetica;fontSize=12;fontColor=default;align=center;strokeColor=default;fillColor=default;" vertex="1" parent="WIyWlLk6GJQsqaUBKTNV-1">
          <mxGeometry x="160" y="760" width="200" height="40" as="geometry" />
        </mxCell>
        <mxCell id="BHgu736OFygUR0V6wJeC-42" style="edgeStyle=orthogonalEdgeStyle;rounded=0;orthogonalLoop=1;jettySize=auto;html=1;exitX=0;exitY=0.5;exitDx=0;exitDy=0;entryX=0;entryY=0.5;entryDx=0;entryDy=0;fontFamily=Helvetica;fontSize=12;fontColor=default;" edge="1" parent="WIyWlLk6GJQsqaUBKTNV-1" source="BHgu736OFygUR0V6wJeC-30" target="BHgu736OFygUR0V6wJeC-23">
          <mxGeometry relative="1" as="geometry">
            <Array as="points">
              <mxPoint x="120" y="860" />
              <mxPoint x="120" y="520" />
            </Array>
          </mxGeometry>
        </mxCell>
        <mxCell id="BHgu736OFygUR0V6wJeC-30" value="子個体群更新・環境選択" style="shape=process;whiteSpace=wrap;html=1;backgroundOutline=1;fontFamily=Helvetica;fontSize=12;fontColor=default;align=center;strokeColor=default;fillColor=default;" vertex="1" parent="WIyWlLk6GJQsqaUBKTNV-1">
          <mxGeometry x="160" y="840" width="200" height="40" as="geometry" />
        </mxCell>
        <mxCell id="BHgu736OFygUR0V6wJeC-33" style="edgeStyle=orthogonalEdgeStyle;rounded=0;orthogonalLoop=1;jettySize=auto;html=1;exitX=0.5;exitY=1;exitDx=0;exitDy=0;entryX=0.5;entryY=0;entryDx=0;entryDy=0;fontFamily=Helvetica;fontSize=12;fontColor=default;" edge="1" parent="WIyWlLk6GJQsqaUBKTNV-1" source="BHgu736OFygUR0V6wJeC-28" target="BHgu736OFygUR0V6wJeC-29">
          <mxGeometry relative="1" as="geometry" />
        </mxCell>
        <mxCell id="BHgu736OFygUR0V6wJeC-47" value="cilabo.developing.*.main" style="swimlane;horizontal=0;rounded=0;fontFamily=Helvetica;fontSize=12;strokeColor=#666666;fillColor=#f5f5f5;html=1;startSize=40;fontColor=#333333;" vertex="1" parent="WIyWlLk6GJQsqaUBKTNV-1">
          <mxGeometry x="60" y="960" width="360" height="80" as="geometry" />
        </mxCell>
        <mxCell id="BHgu736OFygUR0V6wJeC-45" value="実験結果 出力" style="rounded=0;whiteSpace=wrap;html=1;" vertex="1" parent="BHgu736OFygUR0V6wJeC-47">
          <mxGeometry x="100" y="20" width="200" height="40" as="geometry" />
        </mxCell>
        <mxCell id="BHgu736OFygUR0V6wJeC-55" value="Yes" style="edgeStyle=orthogonalEdgeStyle;rounded=0;orthogonalLoop=1;jettySize=auto;html=1;exitX=1;exitY=0.5;exitDx=0;exitDy=0;entryX=0.5;entryY=0;entryDx=0;entryDy=0;fontFamily=Helvetica;fontSize=12;fontColor=default;" edge="1" parent="WIyWlLk6GJQsqaUBKTNV-1" source="BHgu736OFygUR0V6wJeC-23" target="BHgu736OFygUR0V6wJeC-45">
          <mxGeometry x="-0.9355" relative="1" as="geometry">
            <Array as="points">
              <mxPoint x="460" y="520" />
              <mxPoint x="460" y="920" />
              <mxPoint x="260" y="920" />
            </Array>
            <mxPoint as="offset" />
          </mxGeometry>
        </mxCell>
        <mxCell id="BHgu736OFygUR0V6wJeC-57" value="" style="edgeStyle=orthogonalEdgeStyle;rounded=0;orthogonalLoop=1;jettySize=auto;html=1;fontFamily=Helvetica;fontSize=12;fontColor=default;" edge="1" parent="WIyWlLk6GJQsqaUBKTNV-1" source="BHgu736OFygUR0V6wJeC-56" target="WIyWlLk6GJQsqaUBKTNV-3">
          <mxGeometry relative="1" as="geometry" />
        </mxCell>
        <mxCell id="BHgu736OFygUR0V6wJeC-56" value="start" style="rounded=1;whiteSpace=wrap;html=1;fontFamily=Helvetica;fontSize=12;fontColor=default;strokeColor=default;fillColor=default;" vertex="1" parent="WIyWlLk6GJQsqaUBKTNV-1">
          <mxGeometry x="160" y="40" width="200" height="40" as="geometry" />
        </mxCell>
        <mxCell id="BHgu736OFygUR0V6wJeC-59" value="end" style="rounded=1;whiteSpace=wrap;html=1;fontFamily=Helvetica;fontSize=12;fontColor=default;strokeColor=default;fillColor=default;" vertex="1" parent="WIyWlLk6GJQsqaUBKTNV-1">
          <mxGeometry x="160" y="1060" width="200" height="40" as="geometry" />
        </mxCell>
        <mxCell id="BHgu736OFygUR0V6wJeC-60" value="" style="edgeStyle=orthogonalEdgeStyle;rounded=0;orthogonalLoop=1;jettySize=auto;html=1;fontFamily=Helvetica;fontSize=12;fontColor=default;" edge="1" parent="WIyWlLk6GJQsqaUBKTNV-1" source="BHgu736OFygUR0V6wJeC-45" target="BHgu736OFygUR0V6wJeC-59">
          <mxGeometry relative="1" as="geometry" />
        </mxCell>
      </root>
    </mxGraphModel>
  </diagram>
  <diagram id="KKgAk1HdpqCOO54ovuoK" name="ページ2">
    <mxGraphModel dx="1964" dy="1069" grid="1" gridSize="10" guides="1" tooltips="1" connect="1" arrows="1" fold="1" page="1" pageScale="1" pageWidth="850" pageHeight="1100" math="0" shadow="0">
      <root>
        <mxCell id="0" />
        <mxCell id="1" parent="0" />
        <mxCell id="gJbNcLRhqNEW6QgsCG9P-1" value="" style="edgeStyle=orthogonalEdgeStyle;rounded=0;orthogonalLoop=1;jettySize=auto;html=1;fontFamily=Helvetica;fontSize=12;fontColor=default;" edge="1" parent="1" source="gJbNcLRhqNEW6QgsCG9P-2" target="gJbNcLRhqNEW6QgsCG9P-3">
          <mxGeometry relative="1" as="geometry" />
        </mxCell>
        <mxCell id="gJbNcLRhqNEW6QgsCG9P-2" value="初期個体群 生成" style="shape=process;whiteSpace=wrap;html=1;backgroundOutline=1;fontFamily=Helvetica;fontSize=12;fontColor=#333333;align=center;strokeColor=#666666;fillColor=#f5f5f5;" vertex="1" parent="1">
          <mxGeometry x="100" y="60" width="200" height="40" as="geometry" />
        </mxCell>
        <mxCell id="T1B7aWz5VTxmHe6bFBXT-2" value="" style="edgeStyle=orthogonalEdgeStyle;rounded=0;orthogonalLoop=1;jettySize=auto;html=1;fontFamily=Helvetica;fontSize=12;fontColor=default;" edge="1" parent="1" source="gJbNcLRhqNEW6QgsCG9P-3" target="T1B7aWz5VTxmHe6bFBXT-1">
          <mxGeometry relative="1" as="geometry" />
        </mxCell>
        <mxCell id="mpJxmCXZN_PUPqpWL8yS-49" value="" style="edgeStyle=orthogonalEdgeStyle;rounded=0;orthogonalLoop=1;jettySize=auto;html=1;fontFamily=Helvetica;fontSize=12;fontColor=default;" edge="1" parent="1" source="gJbNcLRhqNEW6QgsCG9P-3" target="mpJxmCXZN_PUPqpWL8yS-46">
          <mxGeometry relative="1" as="geometry" />
        </mxCell>
        <mxCell id="gJbNcLRhqNEW6QgsCG9P-3" value="データセットからランダムに&lt;br&gt;パターンを取得" style="rounded=1;whiteSpace=wrap;html=1;fontFamily=Helvetica;fontSize=12;fontColor=default;strokeColor=default;fillColor=default;" vertex="1" parent="1">
          <mxGeometry x="100" y="140" width="200" height="40" as="geometry" />
        </mxCell>
        <mxCell id="T1B7aWz5VTxmHe6bFBXT-15" value="add" style="edgeStyle=orthogonalEdgeStyle;rounded=0;orthogonalLoop=1;jettySize=auto;html=1;fontFamily=Helvetica;fontSize=12;fontColor=default;entryX=0;entryY=0.5;entryDx=0;entryDy=0;" edge="1" parent="1" target="T1B7aWz5VTxmHe6bFBXT-14">
          <mxGeometry relative="1" as="geometry">
            <mxPoint x="299" y="480" as="sourcePoint" />
            <mxPoint x="379" y="520" as="targetPoint" />
          </mxGeometry>
        </mxCell>
        <mxCell id="mpJxmCXZN_PUPqpWL8yS-1" value="cilabo.gbml.problem.*.createSolution" style="swimlane;horizontal=0;rounded=0;fontFamily=Helvetica;fontSize=12;strokeColor=#666666;fillColor=#f5f5f5;html=1;startSize=40;fontColor=#333333;" vertex="1" parent="1">
          <mxGeometry x="40" y="40" width="460" height="640" as="geometry" />
        </mxCell>
        <mxCell id="mpJxmCXZN_PUPqpWL8yS-50" value="" style="edgeStyle=orthogonalEdgeStyle;rounded=0;orthogonalLoop=1;jettySize=auto;html=1;fontFamily=Helvetica;fontSize=12;fontColor=default;" edge="1" parent="mpJxmCXZN_PUPqpWL8yS-1" source="mpJxmCXZN_PUPqpWL8yS-46" target="T1B7aWz5VTxmHe6bFBXT-3">
          <mxGeometry relative="1" as="geometry" />
        </mxCell>
        <mxCell id="mpJxmCXZN_PUPqpWL8yS-46" value="i=0; i&amp;lt;ルール数; i++" style="strokeWidth=2;html=1;shape=mxgraph.flowchart.loop_limit;whiteSpace=wrap;rounded=1;fontFamily=Helvetica;fontSize=12;fontColor=default;fillColor=default;" vertex="1" parent="mpJxmCXZN_PUPqpWL8yS-1">
          <mxGeometry x="60" y="180" width="200" height="40" as="geometry" />
        </mxCell>
        <mxCell id="mpJxmCXZN_PUPqpWL8yS-51" value="" style="edgeStyle=orthogonalEdgeStyle;rounded=0;orthogonalLoop=1;jettySize=auto;html=1;fontFamily=Helvetica;fontSize=12;fontColor=default;" edge="1" parent="mpJxmCXZN_PUPqpWL8yS-1" source="T1B7aWz5VTxmHe6bFBXT-9" target="mpJxmCXZN_PUPqpWL8yS-47">
          <mxGeometry relative="1" as="geometry" />
        </mxCell>
        <mxCell id="T1B7aWz5VTxmHe6bFBXT-9" value="Michigan型識別器を生成" style="rounded=1;whiteSpace=wrap;html=1;fontFamily=Helvetica;fontSize=12;fontColor=default;strokeColor=default;fillColor=default;" vertex="1" parent="mpJxmCXZN_PUPqpWL8yS-1">
          <mxGeometry x="60" y="420" width="200" height="40" as="geometry" />
        </mxCell>
        <mxCell id="T1B7aWz5VTxmHe6bFBXT-3" value="ヒューリスティック法により&lt;br&gt;前件部を生成" style="shape=process;whiteSpace=wrap;html=1;backgroundOutline=1;fontFamily=Helvetica;fontSize=12;fontColor=default;align=center;strokeColor=default;fillColor=default;" vertex="1" parent="mpJxmCXZN_PUPqpWL8yS-1">
          <mxGeometry x="60" y="260" width="200" height="40" as="geometry" />
        </mxCell>
        <mxCell id="T1B7aWz5VTxmHe6bFBXT-6" value="信頼度を算出し，&lt;br&gt;後件部を生成" style="shape=process;whiteSpace=wrap;html=1;backgroundOutline=1;fontFamily=Helvetica;fontSize=12;fontColor=default;align=center;strokeColor=default;fillColor=default;" vertex="1" parent="mpJxmCXZN_PUPqpWL8yS-1">
          <mxGeometry x="60" y="340" width="200" height="40" as="geometry" />
        </mxCell>
        <mxCell id="T1B7aWz5VTxmHe6bFBXT-7" value="" style="edgeStyle=orthogonalEdgeStyle;rounded=0;orthogonalLoop=1;jettySize=auto;html=1;fontFamily=Helvetica;fontSize=12;fontColor=default;" edge="1" parent="mpJxmCXZN_PUPqpWL8yS-1" source="T1B7aWz5VTxmHe6bFBXT-3" target="T1B7aWz5VTxmHe6bFBXT-6">
          <mxGeometry relative="1" as="geometry" />
        </mxCell>
        <mxCell id="T1B7aWz5VTxmHe6bFBXT-13" value="" style="edgeStyle=orthogonalEdgeStyle;rounded=0;orthogonalLoop=1;jettySize=auto;html=1;fontFamily=Helvetica;fontSize=12;fontColor=default;" edge="1" parent="mpJxmCXZN_PUPqpWL8yS-1" source="T1B7aWz5VTxmHe6bFBXT-6" target="T1B7aWz5VTxmHe6bFBXT-9">
          <mxGeometry relative="1" as="geometry" />
        </mxCell>
        <mxCell id="mpJxmCXZN_PUPqpWL8yS-45" value="" style="group" vertex="1" connectable="0" parent="mpJxmCXZN_PUPqpWL8yS-1">
          <mxGeometry x="60" y="420" width="200" height="120" as="geometry" />
        </mxCell>
        <mxCell id="mpJxmCXZN_PUPqpWL8yS-47" value="end" style="strokeWidth=2;html=1;shape=mxgraph.flowchart.loop_limit;whiteSpace=wrap;rounded=1;fontFamily=Helvetica;fontSize=12;fontColor=default;fillColor=default;flipV=1;" vertex="1" parent="mpJxmCXZN_PUPqpWL8yS-45">
          <mxGeometry y="80" width="200" height="40" as="geometry" />
        </mxCell>
        <mxCell id="T1B7aWz5VTxmHe6bFBXT-16" value="Pittsuburgh型識別器を生成" style="rounded=1;whiteSpace=wrap;html=1;fontFamily=Helvetica;fontSize=12;fontColor=default;strokeColor=default;fillColor=default;" vertex="1" parent="mpJxmCXZN_PUPqpWL8yS-1">
          <mxGeometry x="60" y="580" width="200" height="40" as="geometry" />
        </mxCell>
        <mxCell id="mpJxmCXZN_PUPqpWL8yS-52" value="" style="edgeStyle=orthogonalEdgeStyle;rounded=0;orthogonalLoop=1;jettySize=auto;html=1;fontFamily=Helvetica;fontSize=12;fontColor=default;" edge="1" parent="mpJxmCXZN_PUPqpWL8yS-1" source="mpJxmCXZN_PUPqpWL8yS-47" target="T1B7aWz5VTxmHe6bFBXT-16">
          <mxGeometry relative="1" as="geometry" />
        </mxCell>
        <mxCell id="T1B7aWz5VTxmHe6bFBXT-14" value="MichiganPopulation" style="shape=internalStorage;whiteSpace=wrap;html=1;backgroundOutline=1;rounded=0;fontFamily=Helvetica;fontSize=12;fontColor=default;strokeColor=default;fillColor=default;" vertex="1" parent="mpJxmCXZN_PUPqpWL8yS-1">
          <mxGeometry x="320" y="400" width="120" height="80" as="geometry" />
        </mxCell>
        <mxCell id="T1B7aWz5VTxmHe6bFBXT-18" style="edgeStyle=orthogonalEdgeStyle;rounded=0;orthogonalLoop=1;jettySize=auto;html=1;entryX=1;entryY=0.5;entryDx=0;entryDy=0;fontFamily=Helvetica;fontSize=12;fontColor=default;exitX=0.5;exitY=1;exitDx=0;exitDy=0;" edge="1" parent="mpJxmCXZN_PUPqpWL8yS-1" source="T1B7aWz5VTxmHe6bFBXT-14" target="T1B7aWz5VTxmHe6bFBXT-16">
          <mxGeometry relative="1" as="geometry">
            <Array as="points">
              <mxPoint x="380" y="600" />
            </Array>
          </mxGeometry>
        </mxCell>
        <mxCell id="T1B7aWz5VTxmHe6bFBXT-1" value="sampleIndex" style="shape=internalStorage;whiteSpace=wrap;html=1;backgroundOutline=1;rounded=0;fontFamily=Helvetica;fontSize=12;fontColor=default;strokeColor=default;fillColor=default;" vertex="1" parent="mpJxmCXZN_PUPqpWL8yS-1">
          <mxGeometry x="320" y="80" width="120" height="80" as="geometry" />
        </mxCell>
        <mxCell id="T1B7aWz5VTxmHe6bFBXT-5" style="edgeStyle=orthogonalEdgeStyle;rounded=0;orthogonalLoop=1;jettySize=auto;html=1;exitX=0.5;exitY=1;exitDx=0;exitDy=0;entryX=1;entryY=0.5;entryDx=0;entryDy=0;fontFamily=Helvetica;fontSize=12;fontColor=default;" edge="1" parent="mpJxmCXZN_PUPqpWL8yS-1" source="T1B7aWz5VTxmHe6bFBXT-1" target="T1B7aWz5VTxmHe6bFBXT-3">
          <mxGeometry relative="1" as="geometry" />
        </mxCell>
        <mxCell id="mpJxmCXZN_PUPqpWL8yS-26" value="" style="edgeStyle=orthogonalEdgeStyle;rounded=0;orthogonalLoop=1;jettySize=auto;html=1;fontFamily=Helvetica;fontSize=12;fontColor=default;" edge="1" parent="1" source="mpJxmCXZN_PUPqpWL8yS-14" target="mpJxmCXZN_PUPqpWL8yS-16">
          <mxGeometry relative="1" as="geometry" />
        </mxCell>
        <mxCell id="mpJxmCXZN_PUPqpWL8yS-27" value="" style="edgeStyle=orthogonalEdgeStyle;rounded=0;orthogonalLoop=1;jettySize=auto;html=1;fontFamily=Helvetica;fontSize=12;fontColor=default;" edge="1" parent="1" source="mpJxmCXZN_PUPqpWL8yS-16" target="mpJxmCXZN_PUPqpWL8yS-17">
          <mxGeometry relative="1" as="geometry" />
        </mxCell>
        <mxCell id="mpJxmCXZN_PUPqpWL8yS-16" value="Don&#39;t care 生成確率を算出" style="rounded=1;whiteSpace=wrap;html=1;fontFamily=Helvetica;fontSize=12;fontColor=default;strokeColor=default;fillColor=default;" vertex="1" parent="1">
          <mxGeometry x="640" y="160" width="200" height="40" as="geometry" />
        </mxCell>
        <mxCell id="mpJxmCXZN_PUPqpWL8yS-28" value="No" style="edgeStyle=orthogonalEdgeStyle;rounded=0;orthogonalLoop=1;jettySize=auto;html=1;fontFamily=Helvetica;fontSize=12;fontColor=default;" edge="1" parent="1" source="mpJxmCXZN_PUPqpWL8yS-17" target="mpJxmCXZN_PUPqpWL8yS-19">
          <mxGeometry relative="1" as="geometry" />
        </mxCell>
        <mxCell id="mpJxmCXZN_PUPqpWL8yS-58" value="Yes" style="edgeStyle=orthogonalEdgeStyle;rounded=0;orthogonalLoop=1;jettySize=auto;html=1;fontFamily=Helvetica;fontSize=12;fontColor=default;" edge="1" parent="1" source="mpJxmCXZN_PUPqpWL8yS-17" target="mpJxmCXZN_PUPqpWL8yS-57">
          <mxGeometry relative="1" as="geometry" />
        </mxCell>
        <mxCell id="mpJxmCXZN_PUPqpWL8yS-17" value="Don&#39;t care を適用" style="rhombus;whiteSpace=wrap;html=1;rounded=0;fontFamily=Helvetica;fontSize=12;fontColor=default;strokeColor=default;fillColor=default;" vertex="1" parent="1">
          <mxGeometry x="640" y="240" width="200" height="80" as="geometry" />
        </mxCell>
        <mxCell id="mpJxmCXZN_PUPqpWL8yS-25" value="" style="edgeStyle=orthogonalEdgeStyle;rounded=0;orthogonalLoop=1;jettySize=auto;html=1;fontFamily=Helvetica;fontSize=12;fontColor=default;startArrow=none;" edge="1" parent="1" source="mpJxmCXZN_PUPqpWL8yS-34" target="mpJxmCXZN_PUPqpWL8yS-21">
          <mxGeometry relative="1" as="geometry" />
        </mxCell>
        <mxCell id="mpJxmCXZN_PUPqpWL8yS-56" value="Yes" style="edgeStyle=orthogonalEdgeStyle;rounded=0;orthogonalLoop=1;jettySize=auto;html=1;entryX=0;entryY=0.5;entryDx=0;entryDy=0;fontFamily=Helvetica;fontSize=12;fontColor=default;" edge="1" parent="1" source="mpJxmCXZN_PUPqpWL8yS-19" target="mpJxmCXZN_PUPqpWL8yS-55">
          <mxGeometry relative="1" as="geometry" />
        </mxCell>
        <mxCell id="mpJxmCXZN_PUPqpWL8yS-19" value="属性値が離散値である" style="rhombus;whiteSpace=wrap;html=1;fontFamily=Helvetica;fontSize=12;fontColor=default;align=center;strokeColor=default;fillColor=default;" vertex="1" parent="1">
          <mxGeometry x="640" y="360" width="200" height="80" as="geometry" />
        </mxCell>
        <mxCell id="mpJxmCXZN_PUPqpWL8yS-29" value="" style="edgeStyle=orthogonalEdgeStyle;rounded=0;orthogonalLoop=1;jettySize=auto;html=1;fontFamily=Helvetica;fontSize=12;fontColor=default;" edge="1" parent="1" source="mpJxmCXZN_PUPqpWL8yS-21" target="mpJxmCXZN_PUPqpWL8yS-24">
          <mxGeometry relative="1" as="geometry" />
        </mxCell>
        <mxCell id="mpJxmCXZN_PUPqpWL8yS-32" value="" style="edgeStyle=orthogonalEdgeStyle;rounded=0;orthogonalLoop=1;jettySize=auto;html=1;fontFamily=Helvetica;fontSize=12;fontColor=default;" edge="1" parent="1" source="mpJxmCXZN_PUPqpWL8yS-21" target="mpJxmCXZN_PUPqpWL8yS-31">
          <mxGeometry relative="1" as="geometry" />
        </mxCell>
        <mxCell id="mpJxmCXZN_PUPqpWL8yS-21" value="サンプルデータに対する&lt;br&gt;メンバシップ値を算出" style="rounded=1;whiteSpace=wrap;html=1;fontFamily=Helvetica;fontSize=12;fontColor=default;strokeColor=default;fillColor=default;" vertex="1" parent="1">
          <mxGeometry x="640" y="560" width="200" height="40" as="geometry" />
        </mxCell>
        <mxCell id="mpJxmCXZN_PUPqpWL8yS-23" value="" style="edgeStyle=orthogonalEdgeStyle;rounded=0;orthogonalLoop=1;jettySize=auto;html=1;fontFamily=Helvetica;fontSize=12;fontColor=default;" edge="1" parent="1" target="mpJxmCXZN_PUPqpWL8yS-14">
          <mxGeometry relative="1" as="geometry">
            <mxPoint x="930" y="100" as="sourcePoint" />
          </mxGeometry>
        </mxCell>
        <mxCell id="mpJxmCXZN_PUPqpWL8yS-22" value="sampleIndex" style="shape=internalStorage;whiteSpace=wrap;html=1;backgroundOutline=1;rounded=0;fontFamily=Helvetica;fontSize=12;fontColor=default;strokeColor=default;fillColor=default;" vertex="1" parent="1">
          <mxGeometry x="870" y="60" width="120" height="80" as="geometry" />
        </mxCell>
        <mxCell id="mpJxmCXZN_PUPqpWL8yS-62" value="" style="edgeStyle=orthogonalEdgeStyle;rounded=0;orthogonalLoop=1;jettySize=auto;html=1;fontFamily=Helvetica;fontSize=12;fontColor=default;" edge="1" parent="1" source="mpJxmCXZN_PUPqpWL8yS-24" target="mpJxmCXZN_PUPqpWL8yS-61">
          <mxGeometry relative="1" as="geometry" />
        </mxCell>
        <mxCell id="mpJxmCXZN_PUPqpWL8yS-24" value="メンバシップ値を基に重み付けし，確率的にファジィを選択" style="rounded=1;whiteSpace=wrap;html=1;fontFamily=Helvetica;fontSize=12;fontColor=default;strokeColor=default;fillColor=default;" vertex="1" parent="1">
          <mxGeometry x="640" y="700" width="200" height="40" as="geometry" />
        </mxCell>
        <mxCell id="mpJxmCXZN_PUPqpWL8yS-33" style="edgeStyle=orthogonalEdgeStyle;rounded=0;orthogonalLoop=1;jettySize=auto;html=1;entryX=1;entryY=0.5;entryDx=0;entryDy=0;fontFamily=Helvetica;fontSize=12;fontColor=default;exitX=0.5;exitY=1;exitDx=0;exitDy=0;" edge="1" parent="1" source="mpJxmCXZN_PUPqpWL8yS-31" target="mpJxmCXZN_PUPqpWL8yS-24">
          <mxGeometry relative="1" as="geometry" />
        </mxCell>
        <mxCell id="mpJxmCXZN_PUPqpWL8yS-31" value="membershipValue&lt;br&gt;Roulette" style="shape=internalStorage;whiteSpace=wrap;html=1;backgroundOutline=1;rounded=0;fontFamily=Helvetica;fontSize=12;fontColor=default;strokeColor=default;fillColor=default;" vertex="1" parent="1">
          <mxGeometry x="880" y="540" width="120" height="80" as="geometry" />
        </mxCell>
        <mxCell id="mpJxmCXZN_PUPqpWL8yS-34" value="i=0; i&amp;lt;次元数; i++" style="strokeWidth=2;html=1;shape=mxgraph.flowchart.loop_limit;whiteSpace=wrap;rounded=1;fontFamily=Helvetica;fontSize=12;fontColor=default;fillColor=default;" vertex="1" parent="1">
          <mxGeometry x="640" y="480" width="200" height="40" as="geometry" />
        </mxCell>
        <mxCell id="mpJxmCXZN_PUPqpWL8yS-35" value="No" style="edgeStyle=orthogonalEdgeStyle;rounded=0;orthogonalLoop=1;jettySize=auto;html=1;fontFamily=Helvetica;fontSize=12;fontColor=default;endArrow=none;" edge="1" parent="1" source="mpJxmCXZN_PUPqpWL8yS-19" target="mpJxmCXZN_PUPqpWL8yS-34">
          <mxGeometry relative="1" as="geometry">
            <mxPoint x="740" y="440" as="sourcePoint" />
            <mxPoint x="750" y="650" as="targetPoint" />
          </mxGeometry>
        </mxCell>
        <mxCell id="mpJxmCXZN_PUPqpWL8yS-41" value="" style="group" vertex="1" connectable="0" parent="1">
          <mxGeometry x="640" y="550" width="200" height="120" as="geometry" />
        </mxCell>
        <mxCell id="mpJxmCXZN_PUPqpWL8yS-40" value="end" style="strokeWidth=2;html=1;shape=mxgraph.flowchart.loop_limit;whiteSpace=wrap;rounded=1;fontFamily=Helvetica;fontSize=12;fontColor=default;fillColor=default;flipV=1;" vertex="1" parent="mpJxmCXZN_PUPqpWL8yS-41">
          <mxGeometry y="80" width="200" height="40" as="geometry" />
        </mxCell>
        <mxCell id="mpJxmCXZN_PUPqpWL8yS-66" style="edgeStyle=orthogonalEdgeStyle;rounded=0;orthogonalLoop=1;jettySize=auto;html=1;entryX=1;entryY=0.25;entryDx=0;entryDy=0;fontFamily=Helvetica;fontSize=12;fontColor=default;exitX=0.5;exitY=1;exitDx=0;exitDy=0;" edge="1" parent="1" source="mpJxmCXZN_PUPqpWL8yS-55" target="mpJxmCXZN_PUPqpWL8yS-64">
          <mxGeometry relative="1" as="geometry" />
        </mxCell>
        <mxCell id="mpJxmCXZN_PUPqpWL8yS-55" value="属性値を前件部として設定" style="rounded=1;whiteSpace=wrap;html=1;fontFamily=Helvetica;fontSize=12;fontColor=default;strokeColor=default;fillColor=default;" vertex="1" parent="1">
          <mxGeometry x="940" y="380" width="200" height="40" as="geometry" />
        </mxCell>
        <mxCell id="mpJxmCXZN_PUPqpWL8yS-67" style="edgeStyle=orthogonalEdgeStyle;rounded=0;orthogonalLoop=1;jettySize=auto;html=1;exitX=1;exitY=0.5;exitDx=0;exitDy=0;entryX=1;entryY=0.75;entryDx=0;entryDy=0;fontFamily=Helvetica;fontSize=12;fontColor=default;" edge="1" parent="1" source="mpJxmCXZN_PUPqpWL8yS-57" target="mpJxmCXZN_PUPqpWL8yS-64">
          <mxGeometry relative="1" as="geometry" />
        </mxCell>
        <mxCell id="mpJxmCXZN_PUPqpWL8yS-57" value="Don&#39;t careを前件部として設定" style="rounded=1;whiteSpace=wrap;html=1;fontFamily=Helvetica;fontSize=12;fontColor=default;strokeColor=default;fillColor=default;" vertex="1" parent="1">
          <mxGeometry x="940" y="260" width="200" height="40" as="geometry" />
        </mxCell>
        <mxCell id="mpJxmCXZN_PUPqpWL8yS-65" value="" style="edgeStyle=orthogonalEdgeStyle;rounded=0;orthogonalLoop=1;jettySize=auto;html=1;fontFamily=Helvetica;fontSize=12;fontColor=default;" edge="1" parent="1" source="mpJxmCXZN_PUPqpWL8yS-61" target="mpJxmCXZN_PUPqpWL8yS-64">
          <mxGeometry relative="1" as="geometry" />
        </mxCell>
        <mxCell id="mpJxmCXZN_PUPqpWL8yS-61" value="選択されたファジィを&lt;br&gt;前件部として設定" style="rounded=1;whiteSpace=wrap;html=1;fontFamily=Helvetica;fontSize=12;fontColor=default;strokeColor=default;fillColor=default;" vertex="1" parent="1">
          <mxGeometry x="640" y="780" width="200" height="40" as="geometry" />
        </mxCell>
        <mxCell id="mpJxmCXZN_PUPqpWL8yS-64" value="終了" style="rounded=1;whiteSpace=wrap;html=1;fontFamily=Helvetica;fontSize=12;fontColor=default;strokeColor=default;fillColor=default;" vertex="1" parent="1">
          <mxGeometry x="640" y="860" width="200" height="40" as="geometry" />
        </mxCell>
        <mxCell id="mpJxmCXZN_PUPqpWL8yS-83" value="cilabo.fuzzy.rule.antecedent.factory" style="swimlane;horizontal=0;rounded=0;fontFamily=Helvetica;fontSize=12;fontColor=#333333;strokeColor=#666666;fillColor=#f5f5f5;html=1;arcSize=0;" vertex="1" parent="1">
          <mxGeometry x="560" y="40" width="640" height="900" as="geometry" />
        </mxCell>
        <mxCell id="mpJxmCXZN_PUPqpWL8yS-14" value="&lt;span style=&quot;color: rgb(0, 0, 0);&quot;&gt;ヒューリスティック法により&lt;/span&gt;&lt;br style=&quot;color: rgb(0, 0, 0);&quot;&gt;&lt;span style=&quot;color: rgb(0, 0, 0);&quot;&gt;前件部を生成&lt;/span&gt;" style="shape=process;whiteSpace=wrap;html=1;backgroundOutline=1;fontFamily=Helvetica;fontSize=12;fontColor=#333333;align=center;strokeColor=#666666;fillColor=#f5f5f5;" vertex="1" parent="mpJxmCXZN_PUPqpWL8yS-83">
          <mxGeometry x="80" y="40" width="200" height="40" as="geometry" />
        </mxCell>
      </root>
    </mxGraphModel>
  </diagram>
</mxfile>
